#!OML:ASF H:\Terrain\Patient Classification 1\Animal2\Wednesday\Animal2.ASF
:FULLY-SPECIFIED
:DEGREES
1
root 16.8585 16.1113 -3.53018 -3.01637 -5.37092 -5.6386
lowerback 3.27641 -3.57286 -0.0704475
upperback -2.16654 -4.61754 4.85191
thorax -3.66819 -2.24213 5.36
lowerneck 7.32325 7.48117 18.6272
upperneck -19.8684 8.89435 -23.7494
head -4.83406 4.95972 -11.5455
rclavicle -6.36111e-015 -3.02153e-014
rhumerus -40.4481 -12.8966 -73.5158
rradius 108.911
rwrist -26.3945
rhand -24.5871 -0.763978
rfingers 7.12502
rthumb 1.91037 -30.7352
lclavicle -6.36111e-015 -3.02153e-014
lhumerus -47.858 3.10905 85.6144
lradius 111.439
lwrist 8.53731
lhand 11.9584 28.0585
lfingers 7.12502
lthumb 36.9814 54.1278
rfemur -15.2757 11.6518 9.16144
rtibia 46.8922
rfoot -32.0835 -4.04075
rtoes -28.4094
lfemur -13.2845 2.35762 -3.37469
ltibia 57.0685
lfoot -36.4898 4.38325
ltoes -30.0618
2
root 16.8958 16.1136 -3.52875 -3.02203 -5.7124 -5.79573
lowerback 3.40199 -3.4365 -0.0304621
upperback -2.25127 -4.424 4.93678
thorax -3.84153 -2.14135 5.43111
lowerneck 7.52332 7.36379 18.2768
upperneck -19.9171 8.72865 -23.5563
head -4.95764 4.89543 -11.4378
rclavicle -2.31584e-014 -4.77083e-015
rhumerus -40.0987 -12.3535 -73.521
rradius 109.059
rwrist -26.663
rhand -24.3477 -1.41799
rfingers 7.12502
rthumb 2.1416 -31.387
lclavicle -2.31584e-014 -4.77083e-015
lhumerus -48.9309 3.66915 85.15
lradius 111.518
lwrist 9.15666
lhand 11.2491 28.4308
lfingers 7.12502
lthumb 36.3101 54.6706
rfemur -15.2238 11.7325 9.17413
rtibia 46.5929
rfoot -31.9253 -4.02743
rtoes -29.5803
lfemur -13.1637 2.48654 -3.36612
ltibia 57.1732
lfoot -36.6662 4.36344
ltoes -29.6102
3
root 16.9367 16.1149 -3.52621 -3.00942 -6.00505 -5.86185
lowerback 3.36765 -3.18701 0.0178067
upperback -2.06723 -4.09812 4.82717
thorax -3.67131 -1.98582 5.2581
lowerneck 6.6888 7.28624 18.6381
upperneck -19.663 8.54245 -23.7177
head -4.7408 4.75387 -11.4915
rclavicle -3.61788e-014 -9.54166e-015
rhumerus -39.4321 -12.3507 -73.7014
rradius 109.115
rwrist -26.9673
rhand -24.4664 -1.41819
rfingers 7.12502
rthumb 2.02695 -31.3883
lclavicle -3.61788e-014 -9.54166e-015
lhumerus -49.3859 3.7122 84.7084
lradius 111.604
lwrist 9.96225
lhand 10.1267 28.9562
lfingers 7.12502
lthumb 35.2465 55.4543
rfemur -15.1659 11.8724 9.07181
rtibia 46.309
rfoot -31.7997 -3.79743
rtoes -29.3497
lfemur -13.0885 2.5926 -3.4826
ltibia 57.2913
lfoot -36.9097 4.43456
ltoes -29.2613
4
root 16.9777 16.1181 -3.51928 -2.96948 -6.19619 -6.07068
lowerback 3.29524 -3.05697 0.294129
upperback -2.03744 -3.91622 4.70177
thorax -3.64216 -1.90365 4.95436
lowerneck 6.63635 7.16709 18.7422
upperneck -19.697 8.40323 -23.5241
head -4.78328 4.66054 -11.4446
rclavicle -3.42904e-014 -2.38542e-014
rhumerus -39.1574 -12.0728 -73.9752
rradius 109.201
rwrist -27.3304
rhand -24.7456 -1.30379
rfingers 7.12502
rthumb 1.75727 -31.2763
lclavicle -3.42904e-014 -2.38542e-014
lhumerus -50.2774 3.8507 84.0779
lradius 111.801
lwrist 10.9375
lhand 9.67277 29.7206
lfingers 7.12502
lthumb 34.8159 56.3194
rfemur -15.0807 12.11 9.16779
rtibia 46.0571
rfoot -31.6773 -3.67077
rtoes -28.8505
lfemur -13.0486 2.73637 -3.40278
ltibia 57.4249
lfoot -37.1326 4.29564
ltoes -28.7844
5
root 17.0157 16.1168 -3.51369 -2.84435 -6.57036 -6.2225
lowerback 3.25933 -2.88459 0.451022
upperback -2.12045 -3.67724 4.6342
thorax -3.74158 -1.78663 4.78359
lowerneck 6.6042 7.0812 18.6753
upperneck -19.5519 8.31547 -23.3002
head -4.77569 4.60397 -11.3413
rclavicle 5.86415e-015 -7.95139e-015
rhumerus -38.9277 -11.6937 -74.2005
rradius 109.166
rwrist -27.1976
rhand -25.1955 -1.20132
rfingers 7.12502
rthumb 1.32275 -31.177
lclavicle 5.86415e-015 -7.95139e-015
lhumerus -51.4256 4.12805 83.4592
lradius 112.058
lwrist 11.851
lhand 9.56012 30.6293
lfingers 7.12502
lthumb 34.709 57.2528
rfemur -15.2046 12.4493 9.17005
rtibia 45.822
rfoot -31.5401 -3.729
rtoes -29.4493
lfemur -13.0623 3.08014 -3.37204
ltibia 57.5772
lfoot -37.2155 4.48305
ltoes -29.312
6
root 17.0529 16.1104 -3.50658 -2.75137 -7.00552 -6.29535
lowerback 3.22934 -2.67369 0.492194
upperback -2.15996 -3.39448 4.55903
thorax -3.79418 -1.64623 4.66537
lowerneck 6.44934 6.9954 18.7713
upperneck -19.4117 8.20261 -23.2658
head -4.72996 4.53289 -11.3298
rclavicle 5.81445e-015 7.15625e-015
rhumerus -38.5979 -11.4818 -74.4419
rradius 109.034
rwrist -26.8953
rhand -25.551 -1.02276
rfingers 7.12502
rthumb 0.979372 -31.0003
lclavicle 5.81445e-015 7.15625e-015
lhumerus -52.3777 4.33821 82.8545
lradius 112.242
lwrist 12.9226
lhand 9.09406 31.339
lfingers 7.12502
lthumb 34.2666 58.0631
rfemur -15.3415 12.762 9.0637
rtibia 45.5815
rfoot -31.4073 -3.7369
rtoes -29.8632
lfemur -13.0507 3.41894 -3.43083
ltibia 57.732
lfoot -37.3073 4.52205
ltoes -29.228
7
root 17.0926 16.111 -3.49645 -2.78893 -7.06095 -6.58806
lowerback 3.26948 -2.62168 0.781012
upperback -2.15464 -3.30965 4.5322
thorax -3.83556 -1.61111 4.47205
lowerneck 6.54343 6.88408 18.7195
upperneck -19.5605 8.05818 -23.11
head -4.83841 4.45645 -11.2868
rclavicle -2.76311e-014 2.10712e-014
rhumerus -38.3081 -11.344 -74.611
rradius 109.033
rwrist -27.1024
rhand -25.5284 -0.892468
rfingers 7.12502
rthumb 1.00118 -30.8699
lclavicle -2.76311e-014 2.10712e-014
lhumerus -53.2011 4.50469 82.2266
lradius 112.423
lwrist 14.3803
lhand 7.89374 31.7567
lfingers 7.12502
lthumb 33.126 58.7303
rfemur -15.1148 12.8336 9.27924
rtibia 45.3075
rfoot -31.3222 -3.68733
rtoes -29.5212
lfemur -12.996 3.42271 -3.2378
ltibia 57.8602
lfoot -37.4864 4.10146
ltoes -28.0655
8
root 17.1305 16.1153 -3.49056 -2.69709 -7.07225 -6.80455
lowerback 3.19305 -2.59979 0.929672
upperback -2.19932 -3.27295 4.55612
thorax -3.84833 -1.596 4.40882
lowerneck 6.6629 6.76364 18.5256
upperneck -19.6831 7.89417 -22.9127
head -4.95795 4.37793 -11.203
rclavicle 1.98785e-014 -1.19271e-014
rhumerus -38.0455 -11.0263 -74.6231
rradius 109.054
rwrist -27.1714
rhand -25.9839 -0.592941
rfingers 7.12502
rthumb 0.561287 -30.5719
lclavicle 1.98785e-014 -1.19271e-014
lhumerus -54.0069 4.77385 81.6831
lradius 112.636
lwrist 15.8996
lhand 6.68586 32.207
lfingers 7.12502
lthumb 31.9766 59.4176
rfemur -15.0123 12.9351 9.38801
rtibia 44.9976
rfoot -31.2011 -3.54725
rtoes -29.0094
lfemur -13.0937 3.46767 -3.14404
ltibia 57.9486
lfoot -37.5624 3.84986
ltoes -27.3979
9
root 17.166 16.1165 -3.49197 -2.70109 -7.16574 -6.82381
lowerback 3.33707 -2.52064 0.845826
upperback -2.27561 -3.16505 4.49464
thorax -4.0153 -1.53807 4.3969
lowerneck 6.69835 6.60755 18.5731
upperneck -19.6635 7.69905 -22.8381
head -5.00628 4.27436 -11.1918
rclavicle -2.3059e-014 8.34896e-015
rhumerus -37.9328 -10.6548 -74.6976
rradius 109.009
rwrist -26.961
rhand -26.7533 -0.33075
rfingers 7.12502
rthumb -0.181805 -30.3104
lclavicle -2.3059e-014 8.34896e-015
lhumerus -54.7235 5.03392 81.0858
lradius 112.69
lwrist 17.4301
lhand 5.98123 32.8176
lfingers 7.12502
lthumb 31.3054 60.1604
rfemur -14.9143 13.1565 9.28903
rtibia 44.6702
rfoot -30.9541 -3.61342
rtoes -29.5525
lfemur -13.1008 3.58802 -3.25505
ltibia 57.9954
lfoot -37.5222 3.72845
ltoes -26.6985
10
root 17.2078 16.1242 -3.48838 -2.85543 -7.35479 -6.9238
lowerback 3.61375 -2.40186 0.980077
upperback -2.26405 -2.99347 4.36643
thorax -4.18507 -1.45576 4.19132
lowerneck 6.5905 6.49585 18.7125
upperneck -19.6319 7.55306 -22.7907
head -5.00749 4.18446 -11.1953
rclavicle -4.84538e-014 -8.74653e-015
rhumerus -37.8252 -10.4648 -74.8534
rradius 108.916
rwrist -26.8049
rhand -27.0406 -0.279806
rfingers 7.12502
rthumb -0.459307 -30.2591
lclavicle -4.84538e-014 -8.74653e-015
lhumerus -55.3917 5.21413 80.3556
lradius 112.794
lwrist 18.9903
lhand 5.53601 33.1892
lfingers 7.12502
lthumb 30.8811 60.6132
rfemur -14.6762 13.4684 9.30911
rtibia 44.3546
rfoot -30.6431 -3.66352
rtoes -30.0506
lfemur -12.8747 3.75808 -3.27197
ltibia 58.0238
lfoot -37.5863 3.54655
ltoes -25.6573
